<svg width="144" height="43" viewBox="0 0 144 43" fill="none" xmlns="http://www.w3.org/2000/svg">
<foreignObject x="-40" y="-40" width="224" height="122.03"><div xmlns="http://www.w3.org/1999/xhtml" style="backdrop-filter:blur(20px);clip-path:url(#bgblur_0_4121_7016_clip_path);height:100%;width:100%"></div></foreignObject><g data-figma-bg-blur-radius="40">
<path d="M21 7.25699L13.7329 6.78548L10.996 0L8.25918 6.78548L1 7.25699L6.56773 11.9226L4.7407 19L10.996 15.0979L17.2514 19L15.4243 11.9226L21 7.25699Z" fill="#E9B340"/>
<path d="M44 7.25699L36.7329 6.78548L33.996 0L31.2592 6.78548L24 7.25699L29.5677 11.9226L27.7407 19L33.996 15.0979L40.2514 19L38.4243 11.9226L44 7.25699Z" fill="#E9B340"/>
<path d="M67 7.25699L59.7329 6.78548L56.996 0L54.2592 6.78548L47 7.25699L52.5677 11.9226L50.7407 19L56.996 15.0979L63.2514 19L61.4243 11.9226L67 7.25699Z" fill="#E9B340"/>
<path d="M90 7.25699L82.7329 6.78548L79.996 0L77.2592 6.78548L70 7.25699L75.5677 11.9226L73.7407 19L79.996 15.0979L86.2514 19L84.4243 11.9226L90 7.25699Z" fill="#E9B340"/>
<path d="M113 7.25699L105.733 6.78548L102.996 0L100.259 6.78548L93 7.25699L98.5677 11.9226L96.7407 19L102.996 15.0979L109.251 19L107.424 11.9226L113 7.25699Z" fill="#E9B340"/>
<g clip-path="url(#clip1_4121_7016)">
<path d="M128.432 12.0863L127.736 14.6852L125.192 14.739C124.431 13.3286 124 11.7149 124 10C124 8.34179 124.403 6.77804 125.118 5.40112H125.119L127.384 5.81644L128.376 8.06815C128.169 8.67366 128.055 9.32366 128.055 10C128.056 10.7341 128.188 11.4374 128.432 12.0863Z" fill="#FBBB00"/>
<path d="M143.825 8.1319C143.94 8.73682 144 9.36155 144 10C144 10.716 143.925 11.4143 143.781 12.088C143.294 14.3803 142.022 16.3819 140.26 17.7984L140.26 17.7978L137.407 17.6522L137.003 15.1314C138.172 14.4456 139.086 13.3726 139.567 12.088H134.22V8.1319H139.645H143.825Z" fill="#518EF8"/>
<path d="M140.26 17.7978L140.261 17.7984C138.547 19.1758 136.37 20 134 20C130.192 20 126.881 17.8715 125.192 14.739L128.433 12.0863C129.277 14.3401 131.451 15.9445 134 15.9445C135.096 15.9445 136.122 15.6484 137.003 15.1313L140.26 17.7978Z" fill="#28B446"/>
<path d="M140.383 2.30219L137.143 4.95437C136.232 4.38461 135.154 4.05547 134 4.05547C131.393 4.05547 129.179 5.73348 128.376 8.06812L125.119 5.40109H125.118C126.782 2.1923 130.135 0 134 0C136.426 0 138.651 0.864297 140.383 2.30219Z" fill="#F14336"/>
</g>
<path d="M5.474 40V37.998H0.56V36.906L5.25 30.2H6.86V36.78H8.26V37.998H6.86V40H5.474ZM2.086 36.78H5.558V31.74L2.086 36.78ZM8.83531 41.722L9.63331 38.488H11.0473L9.77331 41.722H8.83531ZM15.7814 40.168C15.1467 40.168 14.6054 40.0467 14.1574 39.804C13.7094 39.552 13.3547 39.2207 13.0934 38.81C12.8321 38.39 12.6734 37.9373 12.6174 37.452H13.9194C14.0127 37.9373 14.2227 38.3153 14.5494 38.586C14.8761 38.8473 15.2914 38.978 15.7954 38.978C16.2621 38.978 16.6727 38.838 17.0274 38.558C17.3821 38.278 17.6667 37.8533 17.8814 37.284C18.0961 36.7147 18.2174 35.996 18.2454 35.128C18.2547 35.1 18.2594 35.072 18.2594 35.044C18.2594 35.016 18.2594 34.988 18.2594 34.96C18.1101 35.24 17.9047 35.4967 17.6434 35.73C17.3821 35.9633 17.0741 36.15 16.7194 36.29C16.3741 36.4207 15.9867 36.486 15.5574 36.486C15.0067 36.486 14.4887 36.36 14.0034 36.108C13.5274 35.8467 13.1354 35.478 12.8274 35.002C12.5287 34.526 12.3794 33.9707 12.3794 33.336C12.3794 32.7667 12.5147 32.23 12.7854 31.726C13.0654 31.222 13.4574 30.816 13.9614 30.508C14.4747 30.1907 15.0767 30.032 15.7674 30.032C16.4861 30.032 17.0881 30.1673 17.5734 30.438C18.0681 30.6993 18.4601 31.0587 18.7494 31.516C19.0481 31.964 19.2627 32.468 19.3934 33.028C19.5334 33.5787 19.6034 34.148 19.6034 34.736C19.6034 35.8093 19.4541 36.7567 19.1554 37.578C18.8567 38.39 18.4227 39.0247 17.8534 39.482C17.2841 39.9393 16.5934 40.168 15.7814 40.168ZM15.8654 35.296C16.2667 35.296 16.6261 35.2073 16.9434 35.03C17.2607 34.8433 17.5127 34.596 17.6994 34.288C17.8861 33.98 17.9794 33.6393 17.9794 33.266C17.9794 32.874 17.8861 32.5287 17.6994 32.23C17.5127 31.922 17.2561 31.684 16.9294 31.516C16.6121 31.3387 16.2527 31.25 15.8514 31.25C15.4594 31.25 15.1047 31.3387 14.7874 31.516C14.4701 31.684 14.2181 31.922 14.0314 32.23C13.8541 32.5287 13.7654 32.8787 13.7654 33.28C13.7654 33.6813 13.8541 34.036 14.0314 34.344C14.2181 34.6427 14.4701 34.876 14.7874 35.044C15.1047 35.212 15.4641 35.296 15.8654 35.296ZM24.3038 41.414L27.8038 29.234H29.1758L25.6758 41.414H24.3038ZM37.5503 40.168C36.8596 40.168 36.267 40.0467 35.7723 39.804C35.2776 39.552 34.8856 39.216 34.5963 38.796C34.307 38.3667 34.1296 37.886 34.0643 37.354H35.4363C35.5296 37.83 35.763 38.222 36.1363 38.53C36.5096 38.8287 36.981 38.978 37.5503 38.978C37.9796 38.978 38.3483 38.8753 38.6563 38.67C38.9643 38.4647 39.2023 38.1893 39.3703 37.844C39.5383 37.4987 39.6223 37.116 39.6223 36.696C39.6223 36.248 39.5336 35.8607 39.3563 35.534C39.1883 35.198 38.9503 34.9367 38.6423 34.75C38.3436 34.5633 37.9936 34.47 37.5923 34.47C37.107 34.47 36.687 34.582 36.3323 34.806C35.987 35.0207 35.735 35.296 35.5763 35.632H34.2183L35.0303 30.2H40.3083V31.418H36.1083L35.5903 34.162C35.8143 33.91 36.113 33.7047 36.4863 33.546C36.869 33.378 37.303 33.294 37.7883 33.294C38.283 33.294 38.7263 33.3827 39.1183 33.56C39.5103 33.7373 39.8416 33.98 40.1123 34.288C40.3923 34.596 40.6023 34.9553 40.7423 35.366C40.8916 35.7767 40.9663 36.2107 40.9663 36.668C40.9663 37.1627 40.887 37.62 40.7283 38.04C40.5696 38.46 40.341 38.8333 40.0423 39.16C39.753 39.4773 39.3936 39.7247 38.9643 39.902C38.5443 40.0793 38.073 40.168 37.5503 40.168ZM48.7659 42.03C48.2619 41.5353 47.7953 40.9473 47.3659 40.266C46.9459 39.594 46.6099 38.8473 46.3579 38.026C46.1153 37.1953 45.9939 36.2993 45.9939 35.338C45.9939 34.3767 46.1153 33.4853 46.3579 32.664C46.6099 31.8333 46.9459 31.0773 47.3659 30.396C47.7953 29.7147 48.2619 29.1313 48.7659 28.646H50.1939V28.772C49.6246 29.3507 49.1299 29.9853 48.7099 30.676C48.2899 31.3667 47.9633 32.104 47.7299 32.888C47.4966 33.672 47.3799 34.4887 47.3799 35.338C47.3799 36.1873 47.4966 37.004 47.7299 37.788C47.9633 38.572 48.2899 39.3093 48.7099 40C49.1393 40.6907 49.6339 41.3253 50.1939 41.904V42.03H48.7659ZM51.5213 40V38.992C52.1746 38.488 52.7953 37.9793 53.3833 37.466C53.9713 36.9527 54.494 36.444 54.9513 35.94C55.418 35.4267 55.782 34.9273 56.0433 34.442C56.3046 33.9473 56.4353 33.476 56.4353 33.028C56.4353 32.7107 56.3793 32.4167 56.2673 32.146C56.1553 31.8753 55.978 31.656 55.7353 31.488C55.4926 31.3107 55.1613 31.222 54.7413 31.222C54.34 31.222 54.004 31.3107 53.7333 31.488C53.472 31.6653 53.2713 31.9033 53.1313 32.202C53.0006 32.4913 52.9353 32.8133 52.9353 33.168H51.5773C51.5866 32.496 51.7313 31.9267 52.0113 31.46C52.2913 30.9933 52.6693 30.6387 53.1453 30.396C53.6306 30.1533 54.172 30.032 54.7693 30.032C55.3946 30.032 55.936 30.1487 56.3933 30.382C56.8506 30.606 57.2053 30.9373 57.4573 31.376C57.7093 31.8053 57.8353 32.3327 57.8353 32.958C57.8353 33.406 57.7466 33.854 57.5693 34.302C57.392 34.7407 57.1493 35.17 56.8413 35.59C56.5426 36.01 56.2066 36.416 55.8333 36.808C55.46 37.1907 55.0726 37.5547 54.6713 37.9C54.2793 38.2453 53.9013 38.558 53.5373 38.838H58.1433V40H51.5213ZM60.9174 40V31.782L59.2094 32.216V31.166L61.4354 30.2H62.3454V40H60.9174ZM67.6251 40.168C66.9905 40.168 66.4491 40.0467 66.0011 39.804C65.5531 39.552 65.1985 39.2207 64.9371 38.81C64.6758 38.39 64.5171 37.9373 64.4611 37.452H65.7631C65.8565 37.9373 66.0665 38.3153 66.3931 38.586C66.7198 38.8473 67.1351 38.978 67.6391 38.978C68.1058 38.978 68.5165 38.838 68.8711 38.558C69.2258 38.278 69.5105 37.8533 69.7251 37.284C69.9398 36.7147 70.0611 35.996 70.0891 35.128C70.0985 35.1 70.1031 35.072 70.1031 35.044C70.1031 35.016 70.1031 34.988 70.1031 34.96C69.9538 35.24 69.7485 35.4967 69.4871 35.73C69.2258 35.9633 68.9178 36.15 68.5631 36.29C68.2178 36.4207 67.8305 36.486 67.4011 36.486C66.8505 36.486 66.3325 36.36 65.8471 36.108C65.3711 35.8467 64.9791 35.478 64.6711 35.002C64.3725 34.526 64.2231 33.9707 64.2231 33.336C64.2231 32.7667 64.3585 32.23 64.6291 31.726C64.9091 31.222 65.3011 30.816 65.8051 30.508C66.3185 30.1907 66.9205 30.032 67.6111 30.032C68.3298 30.032 68.9318 30.1673 69.4171 30.438C69.9118 30.6993 70.3038 31.0587 70.5931 31.516C70.8918 31.964 71.1065 32.468 71.2371 33.028C71.3771 33.5787 71.4471 34.148 71.4471 34.736C71.4471 35.8093 71.2978 36.7567 70.9991 37.578C70.7005 38.39 70.2665 39.0247 69.6971 39.482C69.1278 39.9393 68.4371 40.168 67.6251 40.168ZM67.7091 35.296C68.1105 35.296 68.4698 35.2073 68.7871 35.03C69.1045 34.8433 69.3565 34.596 69.5431 34.288C69.7298 33.98 69.8231 33.6393 69.8231 33.266C69.8231 32.874 69.7298 32.5287 69.5431 32.23C69.3565 31.922 69.0998 31.684 68.7731 31.516C68.4558 31.3387 68.0965 31.25 67.6951 31.25C67.3031 31.25 66.9485 31.3387 66.6311 31.516C66.3138 31.684 66.0618 31.922 65.8751 32.23C65.6978 32.5287 65.6091 32.8787 65.6091 33.28C65.6091 33.6813 65.6978 34.036 65.8751 34.344C66.0618 34.6427 66.3138 34.876 66.6311 35.044C66.9485 35.212 67.3078 35.296 67.7091 35.296ZM79.0595 40.168C78.4809 40.168 78.0002 40.07 77.6175 39.874C77.2349 39.678 76.9502 39.4167 76.7635 39.09C76.5769 38.754 76.4835 38.3947 76.4835 38.012C76.4835 37.5453 76.6049 37.1487 76.8475 36.822C77.0902 36.486 77.4355 36.2293 77.8835 36.052C78.3315 35.8747 78.8682 35.786 79.4935 35.786H81.3275C81.3275 35.3753 81.2669 35.0347 81.1455 34.764C81.0242 34.4933 80.8422 34.2927 80.5995 34.162C80.3662 34.022 80.0675 33.952 79.7035 33.952C79.2835 33.952 78.9242 34.0547 78.6255 34.26C78.3269 34.456 78.1402 34.75 78.0655 35.142H76.6655C76.7215 34.6473 76.8895 34.2273 77.1695 33.882C77.4589 33.5273 77.8275 33.2567 78.2755 33.07C78.7235 32.874 79.1995 32.776 79.7035 32.776C80.3662 32.776 80.9215 32.8927 81.3695 33.126C81.8175 33.3593 82.1535 33.6907 82.3775 34.12C82.6109 34.54 82.7275 35.044 82.7275 35.632V40H81.5095L81.3975 38.81C81.2949 38.9967 81.1735 39.174 81.0335 39.342C80.8935 39.51 80.7255 39.6547 80.5295 39.776C80.3429 39.8973 80.1235 39.9907 79.8715 40.056C79.6289 40.1307 79.3582 40.168 79.0595 40.168ZM79.3255 39.034C79.6242 39.034 79.8949 38.9733 80.1375 38.852C80.3802 38.7307 80.5855 38.5673 80.7535 38.362C80.9309 38.1473 81.0615 37.9093 81.1455 37.648C81.2389 37.3773 81.2902 37.102 81.2995 36.822V36.78H79.6335C79.2322 36.78 78.9055 36.8313 78.6535 36.934C78.4109 37.0273 78.2335 37.158 78.1215 37.326C78.0095 37.494 77.9535 37.69 77.9535 37.914C77.9535 38.1473 78.0049 38.348 78.1075 38.516C78.2195 38.6747 78.3782 38.8007 78.5835 38.894C78.7889 38.9873 79.0362 39.034 79.3255 39.034ZM86.2704 40L83.6244 32.944H85.0944L87.0964 38.656L89.1124 32.944H90.5544L87.9224 40H86.2704ZM91.9133 40V32.944H93.3133V40H91.9133ZM92.6273 31.614C92.3566 31.614 92.1326 31.53 91.9553 31.362C91.7873 31.194 91.7033 30.9793 91.7033 30.718C91.7033 30.466 91.7873 30.2607 91.9553 30.102C92.1326 29.934 92.3566 29.85 92.6273 29.85C92.8886 29.85 93.1079 29.934 93.2853 30.102C93.4626 30.2607 93.5513 30.466 93.5513 30.718C93.5513 30.9793 93.4626 31.194 93.2853 31.362C93.1079 31.53 92.8886 31.614 92.6273 31.614ZM98.0453 40.168C97.4479 40.168 96.9253 40.07 96.4773 39.874C96.0293 39.678 95.6746 39.4027 95.4133 39.048C95.1519 38.6933 94.9933 38.278 94.9373 37.802H96.3653C96.4119 38.026 96.5006 38.2313 96.6313 38.418C96.7713 38.6047 96.9579 38.754 97.1913 38.866C97.4339 38.978 97.7186 39.034 98.0453 39.034C98.3533 39.034 98.6053 38.992 98.8013 38.908C99.0066 38.8147 99.1559 38.6933 99.2493 38.544C99.3426 38.3853 99.3893 38.2173 99.3893 38.04C99.3893 37.7787 99.3239 37.5827 99.1933 37.452C99.0719 37.312 98.8853 37.2047 98.6333 37.13C98.3906 37.046 98.0966 36.9713 97.7513 36.906C97.4246 36.85 97.1073 36.7753 96.7993 36.682C96.5006 36.5793 96.2299 36.4533 95.9873 36.304C95.7539 36.1547 95.5673 35.968 95.4273 35.744C95.2873 35.5107 95.2173 35.226 95.2173 34.89C95.2173 34.4887 95.3246 34.1293 95.5393 33.812C95.7539 33.4853 96.0573 33.2333 96.4493 33.056C96.8506 32.8693 97.3219 32.776 97.8633 32.776C98.6473 32.776 99.2773 32.9627 99.7533 33.336C100.229 33.7093 100.509 34.2367 100.593 34.918H99.2353C99.1979 34.6007 99.0579 34.358 98.8153 34.19C98.5726 34.0127 98.2506 33.924 97.8493 33.924C97.4479 33.924 97.1399 34.0033 96.9253 34.162C96.7106 34.3207 96.6033 34.5307 96.6033 34.792C96.6033 34.96 96.6639 35.1093 96.7853 35.24C96.9066 35.3707 97.0839 35.4827 97.3173 35.576C97.5599 35.66 97.8539 35.7393 98.1993 35.814C98.6939 35.9073 99.1373 36.024 99.5293 36.164C99.9213 36.304 100.234 36.5093 100.467 36.78C100.701 37.0507 100.817 37.438 100.817 37.942C100.827 38.3807 100.715 38.768 100.481 39.104C100.257 39.44 99.9353 39.7013 99.5153 39.888C99.1046 40.0747 98.6146 40.168 98.0453 40.168ZM103.35 42.03H101.936V41.904C102.505 41.3253 102.995 40.6907 103.406 40C103.826 39.3093 104.152 38.572 104.386 37.788C104.619 37.004 104.736 36.1873 104.736 35.338C104.736 34.4887 104.619 33.672 104.386 32.888C104.152 32.104 103.826 31.3667 103.406 30.676C102.995 29.9853 102.505 29.3507 101.936 28.772V28.646H103.35C103.872 29.1313 104.339 29.7147 104.75 30.396C105.17 31.0773 105.506 31.8333 105.758 32.664C106.01 33.4853 106.136 34.3767 106.136 35.338C106.136 36.2993 106.01 37.1953 105.758 38.026C105.506 38.8473 105.17 39.594 104.75 40.266C104.339 40.9473 103.872 41.5353 103.35 42.03Z" fill="white"/>
</g>
<defs>
<clipPath id="bgblur_0_4121_7016_clip_path" transform="translate(40 40)"><rect width="144" height="40" rx="8"/>
</clipPath><clipPath id="clip1_4121_7016">
<rect width="20" height="20" fill="white" transform="translate(124)"/>
</clipPath>
</defs>
</svg>
