<?xml version="1.0" encoding="UTF-8" standalone="no"?>
<!-- Generator: Adobe Illustrator 23.0.4, SVG Export Plug-In . SVG Version: 6.00 Build 0)  -->

<svg
   xmlns:dc="http://purl.org/dc/elements/1.1/"
   xmlns:cc="http://creativecommons.org/ns#"
   xmlns:rdf="http://www.w3.org/1999/02/22-rdf-syntax-ns#"
   xmlns:svg="http://www.w3.org/2000/svg"
   xmlns="http://www.w3.org/2000/svg"
   xmlns:sodipodi="http://sodipodi.sourceforge.net/DTD/sodipodi-0.dtd"
   xmlns:inkscape="http://www.inkscape.org/namespaces/inkscape"
   version="1.1"
   id="Calque_1"
   x="0px"
   y="0px"
   viewBox="0 0 541.97997 289.64"
   xml:space="preserve"
   sodipodi:docname="LOGO_-_LM_-_Couleur.svg"
   width="541.97998"
   height="289.64001"
   inkscape:version="0.92.4 (5da689c313, 2019-01-14)"><metadata
   id="metadata405"><rdf:RDF><cc:Work
       rdf:about=""><dc:format>image/svg+xml</dc:format><dc:type
         rdf:resource="http://purl.org/dc/dcmitype/StillImage" /><dc:title></dc:title></cc:Work></rdf:RDF></metadata><defs
   id="defs403" /><sodipodi:namedview
   pagecolor="#ffffff"
   bordercolor="#666666"
   borderopacity="1"
   objecttolerance="10"
   gridtolerance="10"
   guidetolerance="10"
   inkscape:pageopacity="0"
   inkscape:pageshadow="2"
   inkscape:window-width="1366"
   inkscape:window-height="705"
   id="namedview401"
   showgrid="false"
   fit-margin-top="0"
   fit-margin-left="0"
   fit-margin-right="0"
   fit-margin-bottom="0"
   inkscape:zoom="0.39645207"
   inkscape:cx="836.99869"
   inkscape:cy="144.80999"
   inkscape:window-x="-8"
   inkscape:window-y="-8"
   inkscape:window-maximized="1"
   inkscape:current-layer="Calque_1" />
<style
   type="text/css"
   id="style2">
	.st0{fill:#243D70;}
	.st1{fill:#EC6608;}
	.st2{fill:#FFFFFF;}
</style>
<g
   id="g80"
   transform="translate(-142.75,-152.81)">
	<polygon
   class="st0"
   points="309.9,215.24 276.67,332.36 243.2,215.24 214.71,215.24 213.35,365.37 232.12,365.37 233.25,242.06 264.68,349.78 288.42,349.78 319.85,242.06 320.99,365.37 339.75,365.37 338.4,215.24 "
   id="polygon4"
   style="fill:#243d70" />
	<g
   id="g78">
		<g
   id="g40">
			<path
   class="st1"
   d="m 372.8,300.2 c 6.03,0 10.92,-4.72 10.92,-10.54 0,-5.82 -4.89,-10.54 -10.92,-10.54 -6.03,0 -10.92,4.72 -10.92,10.54 0,5.82 4.89,10.54 10.92,10.54"
   id="path6"
   inkscape:connector-curvature="0"
   style="fill:#ec6608" />
			<path
   class="st1"
   d="m 165.48,316.02 c 12.52,0 22.68,-9.8 22.68,-21.89 0,-12.08 -10.15,-21.88 -22.68,-21.88 -12.52,0 -22.67,9.8 -22.67,21.88 0,12.09 10.15,21.89 22.67,21.89"
   id="path8"
   inkscape:connector-curvature="0"
   style="fill:#ec6608" />
			<path
   class="st1"
   d="m 161.21,264.13 c 10.19,0 18.46,-7.97 18.46,-17.81 0,-9.84 -8.26,-17.82 -18.46,-17.82 -10.19,0 -18.46,7.98 -18.46,17.82 0.01,9.84 8.27,17.81 18.46,17.81"
   id="path10"
   inkscape:connector-curvature="0"
   style="fill:#ec6608" />
			<path
   class="st1"
   d="m 172.81,221.4 c 7.48,0 13.54,-5.85 13.54,-13.07 0,-7.22 -6.06,-13.07 -13.54,-13.07 -7.48,0 -13.54,5.85 -13.54,13.07 0,7.22 6.06,13.07 13.54,13.07"
   id="path12"
   inkscape:connector-curvature="0"
   style="fill:#ec6608" />
			<path
   class="st1"
   d="m 198.81,192.16 c 6.08,0 11,-4.75 11,-10.61 0,-5.86 -4.92,-10.61 -11,-10.61 -6.07,0 -11,4.75 -11,10.61 0.01,5.86 4.93,10.61 11,10.61"
   id="path14"
   inkscape:connector-curvature="0"
   style="fill:#ec6608" />
			<path
   class="st1"
   d="m 227.98,176.04 c 5,0 9.04,-3.91 9.04,-8.73 0,-4.82 -4.05,-8.73 -9.04,-8.73 -4.99,0 -9.04,3.91 -9.04,8.73 0,4.82 4.04,8.73 9.04,8.73"
   id="path16"
   inkscape:connector-curvature="0"
   style="fill:#ec6608" />
			<path
   class="st1"
   d="m 258.56,168.23 c 4.41,0 7.99,-3.45 7.99,-7.71 0,-4.26 -3.58,-7.71 -7.99,-7.71 -4.41,0 -7.99,3.45 -7.99,7.71 0,4.26 3.58,7.71 7.99,7.71"
   id="path18"
   inkscape:connector-curvature="0"
   style="fill:#ec6608" />
			<path
   class="st1"
   d="m 285.96,167.21 c 3.25,0 5.88,-2.54 5.88,-5.67 0,-3.13 -2.63,-5.68 -5.88,-5.68 -3.24,0 -5.88,2.54 -5.88,5.68 0.01,3.13 2.64,5.67 5.88,5.67"
   id="path20"
   inkscape:connector-curvature="0"
   style="fill:#ec6608" />
			<path
   class="st1"
   d="m 310.72,172.12 c 3,0 5.43,-2.35 5.43,-5.24 0,-2.9 -2.43,-5.24 -5.43,-5.24 -3,0 -5.43,2.35 -5.43,5.24 0,2.89 2.43,5.24 5.43,5.24"
   id="path22"
   inkscape:connector-curvature="0"
   style="fill:#ec6608" />
			<path
   class="st1"
   d="m 329.59,181.46 c 2.28,0 4.12,-1.78 4.12,-3.98 0,-2.2 -1.85,-3.98 -4.12,-3.98 -2.27,0 -4.12,1.78 -4.12,3.98 -0.01,2.2 1.84,3.98 4.12,3.98"
   id="path24"
   inkscape:connector-curvature="0"
   style="fill:#ec6608" />
			<path
   class="st1"
   d="m 346.8,195.03 c 2.47,0 4.48,-1.93 4.48,-4.32 0,-2.38 -2.01,-4.32 -4.48,-4.32 -2.47,0 -4.48,1.94 -4.48,4.32 0,2.38 2.01,4.32 4.48,4.32"
   id="path26"
   inkscape:connector-curvature="0"
   style="fill:#ec6608" />
			<path
   class="st1"
   d="m 361.52,215.04 c 3.64,0 6.59,-2.85 6.59,-6.36 0,-3.51 -2.95,-6.35 -6.59,-6.35 -3.64,0 -6.59,2.84 -6.59,6.35 0,3.51 2.95,6.36 6.59,6.36"
   id="path28"
   inkscape:connector-curvature="0"
   style="fill:#ec6608" />
			<path
   class="st1"
   d="m 369.93,238.52 c 4.02,0 7.29,-3.15 7.29,-7.03 0,-3.89 -3.26,-7.04 -7.29,-7.04 -4.02,0 -7.29,3.15 -7.29,7.04 0,3.89 3.26,7.03 7.29,7.03"
   id="path30"
   inkscape:connector-curvature="0"
   style="fill:#ec6608" />
			<path
   class="st1"
   d="m 375.27,266.66 c 4.8,0 8.69,-3.75 8.69,-8.38 0,-4.63 -3.89,-8.39 -8.69,-8.39 -4.8,0 -8.69,3.76 -8.69,8.39 0,4.63 3.89,8.38 8.69,8.38"
   id="path32"
   inkscape:connector-curvature="0"
   style="fill:#ec6608" />
			<path
   class="st1"
   d="m 196,371.75 c 15.88,0 28.76,-11.94 28.76,-26.67 0,-14.73 -12.88,-26.67 -28.76,-26.67 -15.88,0 -28.76,11.94 -28.76,26.67 0,14.73 12.88,26.67 28.76,26.67"
   id="path34"
   inkscape:connector-curvature="0"
   style="fill:#ec6608" />
			<path
   class="st0"
   d="m 658.07,330.73 c 0,-3.25 0.81,-5.71 2.44,-7.36 1.62,-1.66 3.75,-2.49 6.37,-2.49 2.7,0 4.87,0.83 6.54,2.49 1.66,1.66 2.49,4.22 2.49,7.67 v 4.67 h -17.84 z m -8.82,17.63 c 0,6.16 1.47,10.74 4.41,13.74 2.94,3.01 7.9,4.51 14.88,4.51 2.01,0 4.31,-0.21 6.9,-0.62 2.6,-0.42 5.03,-0.83 7.31,-1.25 l 0.41,-7.78 c -0.9,0.21 -1.95,0.41 -3.16,0.62 -1.21,0.21 -2.49,0.4 -3.84,0.57 -1.35,0.17 -2.68,0.33 -3.99,0.46 -1.32,0.14 -2.53,0.21 -3.63,0.21 -3.66,0 -6.33,-0.78 -7.99,-2.34 -1.66,-1.56 -2.49,-4.1 -2.49,-7.62 v -6.12 h 26.66 v -10.69 c 0,-6.08 -1.5,-10.7 -4.51,-13.85 -3.01,-3.15 -7.45,-4.72 -13.33,-4.72 -6.02,0 -10.46,1.59 -13.33,4.77 -2.87,3.18 -4.3,7.78 -4.3,13.8 z m -15.03,-53.84 h -8.82 v 70.84 h 8.82 z m -23.86,37.87 c 0,-5.88 -1.46,-10.49 -4.36,-13.85 -2.9,-3.35 -7.54,-5.03 -13.9,-5.03 -6.36,0 -10.99,1.67 -13.9,5.03 -2.9,3.36 -4.35,7.97 -4.35,13.85 v 15.35 c 0,5.88 1.45,10.49 4.35,13.84 2.91,3.36 7.54,5.03 13.9,5.03 6.36,0 11,-1.68 13.9,-5.03 2.9,-3.35 4.36,-7.97 4.36,-13.84 z m -8.82,16.07 c 0,3.52 -0.83,6.21 -2.49,8.04 -1.66,1.83 -3.98,2.75 -6.95,2.75 -2.97,0 -5.29,-0.92 -6.95,-2.75 -1.66,-1.83 -2.49,-4.51 -2.49,-8.04 v -16.8 c 0,-3.53 0.83,-6.21 2.49,-8.04 1.66,-1.83 3.98,-2.75 6.95,-2.75 2.98,0 5.29,0.9 6.95,2.7 1.66,1.8 2.49,4.46 2.49,7.99 z m -52.89,-24.68 c 1.24,1.59 1.86,4.35 1.86,8.3 v 15.97 c 0,7.2 -2.83,10.79 -8.5,10.79 -1.45,0 -3.05,-0.33 -4.77,-0.99 -1.73,-0.66 -3.36,-1.57 -4.88,-2.75 v -25.41 c 1.52,-2.63 3.3,-4.67 5.34,-6.12 2.04,-1.45 4.06,-2.18 6.07,-2.18 2.01,0 3.63,0.8 4.88,2.39 m -16.29,60.77 v -21.57 c 1.52,0.9 3.32,1.73 5.39,2.49 2.07,0.76 4.08,1.14 6.02,1.14 4.77,0 8.56,-1.52 11.36,-4.57 2.8,-3.04 4.2,-7.29 4.2,-12.76 v -18.46 c 0,-5.74 -1.21,-10.06 -3.63,-12.97 -2.42,-2.9 -5.81,-4.35 -10.16,-4.35 -2.7,0 -5.21,0.74 -7.52,2.23 -2.32,1.49 -4.37,3.62 -6.17,6.38 v -7.36 h -8.3 v 69.8 z m -23.85,-52.16 c 0,-5.88 -1.45,-10.49 -4.35,-13.85 -2.9,-3.35 -7.54,-5.03 -13.9,-5.03 -6.36,0 -11,1.67 -13.9,5.03 -2.9,3.36 -4.36,7.97 -4.36,13.85 v 15.35 c 0,5.88 1.46,10.49 4.36,13.84 2.9,3.36 7.54,5.03 13.9,5.03 6.36,0 10.99,-1.68 13.9,-5.03 2.9,-3.35 4.35,-7.97 4.35,-13.84 z m -8.82,16.07 c 0,3.52 -0.83,6.21 -2.49,8.04 -1.66,1.83 -3.97,2.75 -6.95,2.75 -2.98,0 -5.29,-0.92 -6.95,-2.75 -1.66,-1.83 -2.49,-4.51 -2.49,-8.04 v -16.8 c 0,-3.53 0.83,-6.21 2.49,-8.04 1.66,-1.83 3.98,-2.75 6.95,-2.75 2.97,0 5.29,0.9 6.95,2.7 1.66,1.8 2.49,4.46 2.49,7.99 z m -52.07,16.91 v -34.75 c 1.52,-2.56 3.27,-4.41 5.24,-5.55 1.97,-1.14 4.06,-1.71 6.28,-1.71 0.96,0 1.74,0.01 2.33,0.05 0.59,0.04 1.16,0.12 1.71,0.26 v -9.96 c -0.55,-0.14 -1.31,-0.21 -2.28,-0.21 -2.7,0 -5.22,0.76 -7.57,2.28 -2.36,1.52 -4.43,3.7 -6.22,6.53 v -7.57 h -8.3 v 50.62 h 8.81 z m -43.35,-14.42 c 0,5.6 1.28,9.61 3.84,12.03 2.56,2.42 6.57,3.63 12.03,3.63 1.59,0 3.08,-0.11 4.46,-0.31 1.38,-0.2 2.66,-0.45 3.84,-0.73 v -7.36 c -1.03,0.21 -2.37,0.4 -3.99,0.57 -1.63,0.18 -3.2,0.26 -4.72,0.26 -2.21,0 -3.87,-0.57 -4.98,-1.71 -1.11,-1.14 -1.66,-3.02 -1.66,-5.65 v -29.66 h 13.48 v -7.26 h -13.48 v -13.48 h -7.16 l -1.66,13.48 h -7.26 v 7.26 h 7.26 z m -23.24,-56.63 h -8.82 l -7.88,14.42 h 6.85 z m -17.94,36.41 c 0,-3.25 0.81,-5.71 2.44,-7.36 1.62,-1.66 3.75,-2.49 6.38,-2.49 2.7,0 4.87,0.83 6.53,2.49 1.66,1.66 2.49,4.22 2.49,7.67 v 4.67 h -17.84 z m -8.82,17.63 c 0,6.16 1.47,10.74 4.41,13.74 2.94,3.01 7.9,4.51 14.88,4.51 2,0 4.3,-0.21 6.9,-0.62 2.59,-0.42 5.03,-0.83 7.31,-1.25 l 0.42,-7.78 c -0.9,0.21 -1.96,0.41 -3.16,0.62 -1.21,0.21 -2.49,0.4 -3.84,0.57 -1.35,0.17 -2.68,0.33 -3.99,0.46 -1.32,0.14 -2.53,0.21 -3.63,0.21 -3.67,0 -6.32,-0.78 -7.98,-2.34 -1.66,-1.56 -2.49,-4.1 -2.49,-7.62 v -6.12 h 26.66 v -10.69 c 0,-6.08 -1.5,-10.7 -4.51,-13.85 -3.01,-3.15 -7.45,-4.72 -13.33,-4.72 -6.02,0 -10.46,1.59 -13.33,4.77 -2.87,3.18 -4.3,7.78 -4.3,13.8 v 16.31 z"
   id="path36"
   inkscape:connector-curvature="0"
   style="fill:#243d70" />
			<path
   class="st0"
   d="m 672.88,259.11 c 1.43,0.56 2.46,1.31 3.08,2.24 0.62,0.93 0.93,2.12 0.93,3.54 v 1.31 c 0,1.87 -0.56,3.22 -1.68,4.06 -1.12,0.84 -3.36,1.26 -6.71,1.26 -3.79,0 -7.68,-0.5 -11.66,-1.49 l -0.18,7 c 4.35,1 8.3,1.49 11.84,1.49 5.91,0 10.09,-1.1 12.54,-3.31 2.46,-2.21 3.69,-5.46 3.69,-9.75 v -2.24 c 0,-2.3 -0.72,-4.41 -2.14,-6.34 -1.43,-1.93 -3.51,-3.45 -6.25,-4.57 l -8.77,-3.64 c -1.62,-0.68 -2.74,-1.37 -3.36,-2.05 -0.62,-0.68 -0.94,-1.65 -0.94,-2.89 v -0.75 c 0,-1.86 0.56,-3.25 1.68,-4.15 1.12,-0.9 3.33,-1.36 6.62,-1.36 2.86,0 5.94,0.37 9.23,1.12 l 0.19,-6.72 c -2.05,-0.43 -3.84,-0.73 -5.36,-0.88 -1.53,-0.15 -3,-0.23 -4.43,-0.23 -5.72,0 -9.78,1.09 -12.17,3.26 -2.4,2.18 -3.59,5.41 -3.59,9.7 v 1.21 c 0,2.36 0.7,4.46 2.1,6.3 1.4,1.84 3.5,3.28 6.3,4.34 z m -50.74,-12.88 c 0,-2.92 0.73,-5.13 2.19,-6.62 1.47,-1.49 3.38,-2.24 5.74,-2.24 2.42,0 4.38,0.74 5.87,2.24 1.5,1.49 2.24,3.8 2.24,6.9 v 4.2 h -16.04 z m -7.93,15.86 c 0,5.53 1.32,9.66 3.96,12.36 2.64,2.71 7.1,4.06 13.39,4.06 1.8,0 3.87,-0.19 6.2,-0.56 2.33,-0.37 4.53,-0.75 6.58,-1.12 l 0.37,-7 c -0.81,0.19 -1.76,0.37 -2.85,0.56 -1.09,0.19 -2.24,0.36 -3.45,0.51 -1.21,0.16 -2.41,0.3 -3.59,0.42 -1.18,0.13 -2.27,0.19 -3.26,0.19 -3.3,0 -5.69,-0.7 -7.18,-2.1 -1.49,-1.39 -2.24,-3.68 -2.24,-6.85 v -5.5 h 23.97 v -9.61 c 0,-5.47 -1.35,-9.62 -4.06,-12.45 -2.71,-2.83 -6.7,-4.24 -11.99,-4.24 -5.41,0 -9.41,1.43 -11.99,4.29 -2.58,2.86 -3.87,6.99 -3.87,12.41 v 14.63 z m -38.99,-16.97 c 0,-2.55 0.7,-4.48 2.1,-5.78 1.4,-1.31 3.4,-1.96 6.02,-1.96 1.37,0 2.69,0.13 3.96,0.38 1.28,0.24 2.25,0.53 2.94,0.84 0.31,0.87 0.57,1.87 0.79,2.98 0.22,1.12 0.33,2.4 0.33,3.83 v 2.8 c 0,2.55 -0.7,4.51 -2.1,5.88 -1.4,1.37 -3.56,2.05 -6.48,2.05 -1.55,0 -2.81,-0.11 -3.78,-0.33 -0.96,-0.22 -1.73,-0.61 -2.28,-1.16 -0.56,-0.56 -0.95,-1.36 -1.17,-2.38 -0.22,-1.03 -0.33,-2.38 -0.33,-4.06 z m -6.43,48.97 c 2.24,0.5 4.62,0.9 7.13,1.21 2.52,0.31 4.68,0.46 6.48,0.46 3.92,0 7.1,-0.27 9.56,-0.79 2.45,-0.53 4.38,-1.28 5.78,-2.24 1.4,-0.96 2.36,-2.18 2.89,-3.64 0.53,-1.46 0.8,-3.12 0.8,-4.99 v -3.45 c 0,-2.92 -0.89,-5.31 -2.66,-7.18 -1.77,-1.86 -4.09,-2.92 -6.95,-3.17 l -13.9,-1.03 c -1.8,-0.12 -3.02,-0.46 -3.64,-1.02 -0.62,-0.56 -0.93,-1.28 -0.93,-2.14 v -0.56 c 0,-1.31 0.68,-2.55 2.05,-3.73 2.05,0.62 4.7,0.93 7.93,0.93 2.61,0 4.9,-0.37 6.86,-1.12 1.96,-0.74 3.62,-1.79 4.99,-3.12 1.36,-1.33 2.39,-2.94 3.08,-4.81 0.68,-1.86 1.02,-3.88 1.02,-6.06 v -2.05 c 0,-1.24 -0.14,-2.49 -0.42,-3.73 -0.28,-1.25 -0.76,-2.37 -1.45,-3.36 l 7.93,0.28 v -6.99 l -14.55,0.18 c -1.06,-0.37 -2.21,-0.67 -3.45,-0.88 -1.24,-0.22 -2.58,-0.33 -4.01,-0.33 -5.41,0 -9.44,1.35 -12.08,4.06 -2.65,2.71 -3.96,6.2 -3.96,10.49 v 2.05 c 0,2.61 0.23,4.84 0.7,6.67 0.46,1.84 1.22,3.38 2.28,4.62 -2.79,2.12 -4.2,4.6 -4.2,7.46 v 1.86 c 0,2.49 0.78,4.49 2.33,6.02 1.55,1.53 3.83,2.38 6.81,2.56 l 13.99,0.93 c 2.99,0.19 4.48,1.74 4.48,4.66 v 0.84 c 0,1.18 -0.13,2.16 -0.37,2.94 -0.25,0.78 -0.78,1.4 -1.59,1.87 -0.81,0.47 -1.96,0.81 -3.45,1.03 -1.5,0.22 -3.45,0.33 -5.88,0.33 -2.11,0 -4.46,-0.2 -7.04,-0.61 -2.58,-0.41 -4.87,-0.95 -6.86,-1.63 z m -12.97,-46.36 c 0,-5.29 -1.31,-9.44 -3.92,-12.45 -2.61,-3.02 -6.78,-4.52 -12.5,-4.52 -5.72,0 -9.88,1.51 -12.5,4.52 -2.62,3.01 -3.92,7.17 -3.92,12.45 v 13.81 c 0,5.28 1.31,9.43 3.92,12.45 2.61,3.02 6.78,4.53 12.5,4.53 5.72,0 9.89,-1.51 12.5,-4.53 2.61,-3.02 3.92,-7.17 3.92,-12.45 z m -7.93,14.46 c 0,3.17 -0.74,5.58 -2.24,7.22 -1.49,1.65 -3.57,2.48 -6.25,2.48 -2.67,0 -4.75,-0.83 -6.25,-2.48 -1.49,-1.64 -2.23,-4.06 -2.23,-7.22 v -15.11 c 0,-3.17 0.74,-5.58 2.23,-7.23 1.49,-1.65 3.58,-2.47 6.25,-2.47 2.68,0 4.76,0.81 6.25,2.43 1.5,1.61 2.24,4.01 2.24,7.18 z m -85.71,15.2 v -31.62 c 1.37,-2.36 2.97,-4.23 4.8,-5.6 1.83,-1.37 3.62,-2.06 5.36,-2.06 1.74,0 3.14,0.72 4.2,2.15 1.05,1.43 1.59,3.82 1.59,7.18 v 29.94 h 7.93 v -31.62 c 1.37,-2.36 2.97,-4.23 4.8,-5.6 1.83,-1.37 3.62,-2.06 5.36,-2.06 1.74,0 3.14,0.72 4.2,2.15 1.05,1.43 1.58,3.82 1.58,7.18 v 29.94 h 7.93 v -31.06 c 0,-5.04 -1.04,-8.89 -3.12,-11.57 -2.08,-2.67 -5.08,-4.01 -9,-4.01 -2.49,0 -4.8,0.73 -6.95,2.19 -2.15,1.46 -4.06,3.59 -5.74,6.39 -1.74,-5.72 -5.47,-8.58 -11.19,-8.58 -2.36,0 -4.59,0.69 -6.67,2.05 -2.08,1.37 -3.94,3.33 -5.55,5.88 v -6.81 h -7.46 v 45.52 h 7.93 z M 441,216.85 c 0,-2.86 -1.74,-4.29 -5.22,-4.29 -3.42,0 -5.13,1.43 -5.13,4.29 v 2.71 c 0,2.8 1.71,4.2 5.13,4.2 3.48,0 5.22,-1.4 5.22,-4.2 z m -1.21,15.02 h -7.93 v 45.52 h 7.93 z m -17.72,45.52 v -6.99 h -24.25 v -54.1 h -7.93 v 61.09 z"
   id="path38"
   inkscape:connector-curvature="0"
   style="fill:#243d70" />
		</g>
		<g
   id="g76">
			<path
   class="st1"
   d="m 195.09,441.25 c -2.7,0.55 -6.88,1.16 -10.51,1.16 -11.39,0 -13.92,-6.93 -13.92,-19.48 0,-12.88 2.48,-19.7 13.92,-19.7 3.91,0 8.09,0.72 10.51,1.21 l -0.16,3.58 c -2.48,-0.44 -6.93,-0.99 -9.91,-0.99 -8.47,0 -9.96,5.06 -9.96,15.9 0,10.62 1.38,15.68 10.07,15.68 3.08,0 7.15,-0.5 9.79,-0.99 z"
   id="path42"
   inkscape:connector-curvature="0"
   style="fill:#ec6608" />
			<path
   class="st1"
   d="m 224.2,427.77 c 0,10.01 -2.48,14.64 -11.78,14.64 -9.24,0 -11.78,-4.62 -11.78,-14.64 0,-9.46 3.08,-13.98 11.78,-13.98 8.75,0 11.78,4.52 11.78,13.98 z m -4.24,0 c 0,-7.65 -1.65,-10.4 -7.54,-10.4 -5.83,0 -7.54,2.75 -7.54,10.4 0,7.81 1.05,11.06 7.54,11.06 6.55,0 7.54,-3.25 7.54,-11.06 z"
   id="path44"
   inkscape:connector-curvature="0"
   style="fill:#ec6608" />
			<path
   class="st1"
   d="m 232.01,441.86 v -27.51 h 4.07 v 1.92 c 0,0 4.13,-2.48 8.03,-2.48 3.69,0 5.72,0.83 7.15,2.81 0,0 4.9,-2.81 9.79,-2.81 7.48,0 9.3,3.58 9.3,13.54 v 14.53 h -4.13 v -14.42 c 0,-7.26 -0.83,-9.96 -5.78,-9.96 -4.07,0 -7.76,2.04 -7.76,2.04 0.5,1.27 0.72,4.73 0.72,8.03 v 14.31 h -4.13 v -14.2 c 0,-7.59 -0.77,-10.18 -5.78,-10.18 -3.91,0 -7.37,2.04 -7.37,2.04 v 22.34 z"
   id="path46"
   inkscape:connector-curvature="0"
   style="fill:#ec6608" />
			<path
   class="st1"
   d="m 279.12,441.86 v -27.51 h 4.07 v 1.92 c 0,0 4.13,-2.48 8.03,-2.48 3.69,0 5.72,0.83 7.15,2.81 0,0 4.9,-2.81 9.79,-2.81 7.48,0 9.3,3.58 9.3,13.54 v 14.53 h -4.13 v -14.42 c 0,-7.26 -0.83,-9.96 -5.78,-9.96 -4.07,0 -7.76,2.04 -7.76,2.04 0.5,1.27 0.72,4.73 0.72,8.03 v 14.31 h -4.13 v -14.2 c 0,-7.59 -0.77,-10.18 -5.78,-10.18 -3.91,0 -7.37,2.04 -7.37,2.04 v 22.34 z"
   id="path48"
   inkscape:connector-curvature="0"
   style="fill:#ec6608" />
			<path
   class="st1"
   d="m 347.52,414.34 v 27.51 h -4.13 v -1.93 c 0,0 -4.13,2.48 -8.14,2.48 -7.7,0 -9.3,-3.58 -9.3,-13.7 v -14.36 h 4.13 v 14.31 c 0,7.59 0.66,10.07 5.78,10.07 4.07,0 7.54,-2.04 7.54,-2.04 v -22.34 z"
   id="path50"
   inkscape:connector-curvature="0"
   style="fill:#ec6608" />
			<path
   class="st1"
   d="m 356.54,441.86 v -27.51 h 4.07 v 1.92 c 0,0 4.46,-2.48 8.53,-2.48 7.59,0 9.3,3.74 9.3,13.54 v 14.53 h -4.07 v -14.42 c 0,-7.26 -0.82,-9.96 -5.94,-9.96 -3.96,0 -7.76,2.04 -7.76,2.04 v 22.34 z"
   id="path52"
   inkscape:connector-curvature="0"
   style="fill:#ec6608" />
			<path
   class="st1"
   d="m 406.62,436.74 c 0.11,1.6 1.43,2.2 3.19,2.42 l -0.17,3.25 c -2.92,0 -4.9,-0.55 -6.55,-2.2 0,0 -4.95,2.2 -9.91,2.2 -5.01,0 -7.76,-2.86 -7.76,-8.42 0,-5.28 2.75,-7.59 8.42,-8.14 l 8.64,-0.83 v -2.36 c 0,-3.85 -1.65,-5.23 -4.95,-5.23 -3.85,0 -10.4,0.72 -10.4,0.72 l -0.16,-3.14 c 0,0 6.05,-1.21 10.79,-1.21 6.22,0 8.86,2.86 8.86,8.86 z m -12.28,-7.81 c -3.36,0.33 -4.68,1.93 -4.68,4.95 0,3.19 1.38,5.06 4.18,5.06 4.07,0 8.64,-1.71 8.64,-1.71 v -9.08 z"
   id="path54"
   inkscape:connector-curvature="0"
   style="fill:#ec6608" />
			<path
   class="st1"
   d="m 437.16,414.34 v 27.51 h -4.13 v -1.93 c 0,0 -4.13,2.48 -8.14,2.48 -7.7,0 -9.3,-3.58 -9.3,-13.7 v -14.36 h 4.13 v 14.31 c 0,7.59 0.66,10.07 5.78,10.07 4.07,0 7.54,-2.04 7.54,-2.04 v -22.34 z"
   id="path56"
   inkscape:connector-curvature="0"
   style="fill:#ec6608" />
			<path
   class="st1"
   d="m 451.68,417.92 v 13.15 c 0,6 0.39,7.7 3.96,7.7 1.54,0 4.9,-0.33 4.9,-0.33 l 0.28,3.41 c 0,0 -3.69,0.6 -5.61,0.6 -5.67,0 -7.59,-2.15 -7.59,-10.07 v -14.47 h -3.91 v -3.58 h 3.91 v -8.42 h 4.07 v 8.42 h 8.75 v 3.58 h -8.76 z"
   id="path58"
   inkscape:connector-curvature="0"
   style="fill:#ec6608" />
			<path
   class="st1"
   d="m 486.9,438.28 0.11,3.25 c 0,0 -6.27,0.88 -10.73,0.88 -8.2,0 -10.89,-4.79 -10.89,-14.14 0,-10.46 4.51,-14.47 11.5,-14.47 7.32,0 11.06,3.85 11.06,12.88 l -0.22,3.14 h -18.16 c 0,5.89 1.82,8.97 7.21,8.97 4.12,-0.01 10.12,-0.51 10.12,-0.51 z m -3.08,-11.77 c 0,-6.82 -2.09,-9.25 -6.93,-9.25 -4.68,0 -7.32,2.59 -7.37,9.25 z m -1.32,-25.37 1.43,3.52 -12.16,4.68 -1.16,-2.81 z"
   id="path60"
   inkscape:connector-curvature="0"
   style="fill:#ec6608" />
			<path
   class="st1"
   d="m 529.98,414.34 v 27.51 h -4.13 v -1.93 c 0,0 -4.13,2.48 -8.14,2.48 -7.7,0 -9.3,-3.58 -9.3,-13.7 v -14.36 h 4.13 v 14.31 c 0,7.59 0.66,10.07 5.78,10.07 4.07,0 7.54,-2.04 7.54,-2.04 v -22.34 z"
   id="path62"
   inkscape:connector-curvature="0"
   style="fill:#ec6608" />
			<path
   class="st1"
   d="m 539.01,414.34 h 4.07 v 3.74 c 0,0 4.79,-3.3 10.07,-4.35 v 4.18 c -5.17,1.05 -10.02,3.74 -10.02,3.74 v 20.19 H 539 v -27.5 z"
   id="path64"
   inkscape:connector-curvature="0"
   style="fill:#ec6608" />
			<path
   class="st1"
   d="m 581.33,427.66 c 0,10.95 -2.97,14.75 -12.99,14.75 -3.3,0 -9.19,-0.6 -9.19,-0.6 v -39.45 h 4.07 v 13.37 c 0,0 4.18,-1.92 8.09,-1.92 7.48,-0.02 10.02,3.95 10.02,13.85 z m -4.19,0 c 0,-7.1 -1.43,-10.18 -6.27,-10.18 -3.8,0 -7.65,1.6 -7.65,1.6 v 19.37 c 0,0 3.58,0.28 5.06,0.28 7.54,-0.01 8.86,-3.36 8.86,-11.07 z"
   id="path66"
   inkscape:connector-curvature="0"
   style="fill:#ec6608" />
			<path
   class="st1"
   d="m 608.62,436.74 c 0.11,1.6 1.43,2.2 3.19,2.42 l -0.17,3.25 c -2.92,0 -4.9,-0.55 -6.55,-2.2 0,0 -4.95,2.2 -9.9,2.2 -5.01,0 -7.76,-2.86 -7.76,-8.42 0,-5.28 2.75,-7.59 8.42,-8.14 l 8.64,-0.83 v -2.36 c 0,-3.85 -1.65,-5.23 -4.95,-5.23 -3.85,0 -10.4,0.72 -10.4,0.72 l -0.16,-3.14 c 0,0 6.05,-1.21 10.78,-1.21 6.22,0 8.86,2.86 8.86,8.86 z m -12.27,-7.81 c -3.36,0.33 -4.68,1.93 -4.68,4.95 0,3.19 1.37,5.06 4.18,5.06 4.07,0 8.64,-1.71 8.64,-1.71 v -9.08 z"
   id="path68"
   inkscape:connector-curvature="0"
   style="fill:#ec6608" />
			<path
   class="st1"
   d="m 617.86,403.34 h 4.13 v 4.79 h -4.13 z m 0,11 h 4.13 v 27.51 h -4.13 z"
   id="path70"
   inkscape:connector-curvature="0"
   style="fill:#ec6608" />
			<path
   class="st1"
   d="m 631.01,441.86 v -27.51 h 4.07 v 1.92 c 0,0 4.46,-2.48 8.53,-2.48 7.59,0 9.3,3.74 9.3,13.54 v 14.53 h -4.07 v -14.42 c 0,-7.26 -0.83,-9.96 -5.94,-9.96 -3.96,0 -7.76,2.04 -7.76,2.04 v 22.34 z"
   id="path72"
   inkscape:connector-curvature="0"
   style="fill:#ec6608" />
			<path
   class="st1"
   d="m 681.97,438.28 0.11,3.25 c 0,0 -6.27,0.88 -10.73,0.88 -8.2,0 -10.9,-4.79 -10.9,-14.14 0,-10.46 4.51,-14.47 11.5,-14.47 7.32,0 11.06,3.85 11.06,12.88 l -0.22,3.14 h -18.16 c 0,5.89 1.82,8.97 7.21,8.97 4.13,-0.01 10.13,-0.51 10.13,-0.51 z m -3.09,-11.77 c 0,-6.82 -2.09,-9.25 -6.93,-9.25 -4.68,0 -7.32,2.59 -7.37,9.25 z"
   id="path74"
   inkscape:connector-curvature="0"
   style="fill:#ec6608" />
		</g>
	</g>
</g>







</svg>